PathFileType	4	(X/Y/Z)	Patient4_TMGait_0pt5_02_left_30.trc.trc
DataRate	CameraRate	NumFrames	NumMarkers	Units	OrigDataRate	OrigDataStartFrame	OrigNumFrames
75.268817204301	75.268817204301	5	33	mm	75.268817204301	18	       141
Frame#	Time	Sacral			L.Shoulder			Chest			R.Shoulder			Neck			R.ASIS			L.ASIS			R.Thigh.Superior			R.Thigh.Lateral			R.Thigh.Inferior			R.Patella			L.Thigh.Superior			L.Thigh.Lateral			L.Thigh.Inferior			L.Patella			L.Shank.Superior			L.Shank.Lateral			L.Shank.Inferior			R.Shank.Superior			R.Shank.Lateral			R.Shank.Inferior			R.Heel			R.Midfoot.Superior			R.Midfoot.Lateral			R.Toe			L.Heel			L.Midfoot.Lateral			L.Midfoot.Superior			L.Toe			L.Elbow			L.Wrist			R.Elbow			R.Wrist			
		X1	Y1	Z1	X2	Y2	Z2	X3	Y3	Z3	X4	Y4	Z4	X5	Y5	Z5	X6	Y6	Z6	X7	Y7	Z7	X8	Y8	Z8	X9	Y9	Z9	X10	Y10	Z10	X11	Y11	Z11	X12	Y12	Z12	X13	Y13	Z13	X14	Y14	Z14	X15	Y15	Z15	X16	Y16	Z16	X17	Y17	Z17	X18	Y18	Z18	X19	Y19	Z19	X20	Y20	Z20	X21	Y21	Z21	X22	Y22	Z22	X23	Y23	Z23	X24	Y24	Z24	X25	Y25	Z25	X26	Y26	Z26	X27	Y27	Z27	X28	Y28	Z28	X29	Y29	Z29	X30	Y30	Z30	X31	Y31	Z31	X32	Y32	Z32	X33	Y33	Z33	

18	38.665857142857	677.798192354352	1006.188328455158	533.905139009472	841.516821524829	1436.939747056920	349.516666225794	958.754497194726	1361.373271332740	497.660042231651	893.338424261544	1431.301391020844	681.435190773690	856.914530967526	1492.210412922567	501.888911490591	910.494947072173	936.680092773473	632.310887777241	877.792349822982	960.426637096783	359.420359160395	920.019509785367	727.115568794131	599.876328481330	826.860019162947	627.972593984961	664.335458706571	888.213986553198	566.495838012899	580.518639002811	873.862958162077	479.167383913725	584.361152761014	950.406233732198	770.731050021395	389.876299894589	902.413965313130	647.607154003439	308.154966169328	1000.295241697974	584.168893798790	374.212809906297	1028.299949042607	522.999697645439	370.523779715524	1016.670954983378	453.719325264418	358.027303199508	962.817900149174	320.400919990414	302.803454862196	1054.699197626640	227.222396371247	360.130515357185	837.170928602852	393.536795343842	592.170498479438	757.449861760005	297.595122295591	655.377795575296	784.241963067957	199.876081995587	589.758062828689	634.996059930079	43.077299009382	562.119825613864	805.250674969484	95.513621829473	596.129754987555	718.077088004595	36.266690450657	637.223075500059	926.146182242014	44.133744924180	625.789619043069	980.258496622467	45.078984048150	397.406604853696	1054.214095907621	51.721614887540	317.614325637861	1123.549095175135	129.971237128803	338.020689799457	1257.391000799393	103.566008572679	312.550877578428	726.483261644415	1102.377783351649	238.781554911341	726.328365073659	842.865618138868	213.916404494709	981.209494925098	1101.171364896917	794.105225189239	1207.512005200153	1156.043241088716	700.970250963087	
19	38.679142857143	679.154027129131	1004.961712196721	532.324869461145	841.064902581267	1436.100901279602	347.856351136608	958.749835663711	1360.916813707236	495.787633560828	893.314877461715	1430.544800743296	679.612203227949	856.412714522725	1491.336849687333	500.260942678255	911.911504662549	935.976240014002	630.867680581576	879.328230671250	959.233674119241	357.924041322625	919.497652584294	725.853537041275	598.807111966800	825.113053956210	627.478747536304	663.511272516386	885.684929013387	565.269749434313	579.841364565710	870.315807787644	478.000616551921	583.555142195350	952.366881095456	769.524500767445	388.386474656434	902.785928165788	645.434628515322	308.111637287132	1001.307105745416	582.507739427899	373.303530756785	1028.918992052319	521.005552986480	370.037010061236	1016.880459125608	451.435199689067	358.101293895712	961.759980528956	318.223362348786	304.153913235046	1053.498433133275	224.862558428293	361.225268968688	832.998192466378	392.754437829414	591.523255872558	752.642570443330	297.503342283273	654.973168874801	778.496684912112	199.466648612689	589.424777280321	628.302497132055	43.067589567051	562.132695369889	798.573623254820	95.400625979605	596.048090421926	711.363336892089	36.204962760908	637.192262647445	919.468619011500	43.938700975454	625.815811768510	978.021405841995	44.096220922152	399.961291738182	1051.291171810634	49.714146523538	319.480270419061	1121.723042945897	126.950768987751	339.194926292803	1254.923915606978	98.806969227287	312.563460909068	723.560614696173	1102.543420703575	237.853904493749	722.853143534818	842.926873309216	213.198147941102	987.053476176858	1101.750620105551	789.940587065185	1208.757178965361	1167.074674408884	693.719351918070	
20	38.692428571429	680.709874596694	1003.601404755463	530.585054567769	840.637501179588	1435.119276464613	345.982131146461	958.810824934902	1360.406909164700	493.716058819450	893.314769901850	1429.723619153900	677.588671910685	855.905793379551	1490.357931513810	498.410099120625	913.521878307948	935.185933278717	629.324617006046	881.113697320931	957.904828367096	356.342986663005	919.177177704727	724.493871444718	597.748794736546	823.484333927990	626.949264379648	662.645640119809	883.284426225034	563.979377700185	579.136955877210	866.877674792464	476.774337306085	582.711459471079	954.636830637228	768.197353040464	386.885934434439	903.459784225473	643.133375090754	308.117419225179	1002.611329018369	580.782140385607	372.502487456599	1029.721013487148	518.689540421172	369.678245728353	1017.048878102174	448.706912486896	358.313628095874	960.106487451687	315.865750971569	305.538878137180	1051.151382600648	221.877167708031	362.474298210613	828.920370963167	391.947335808090	590.849858508548	747.907848481072	297.417754146162	654.559253101748	772.784010229880	199.059368200949	589.092781834989	621.614919619125	43.058498659150	562.163196219534	791.899868509043	95.282796002184	595.965823932042	704.662776206827	36.132794654059	637.168303246882	912.804494187378	43.706959490554	625.850260741543	973.667279767268	42.926980535819	402.358645785870	1046.381732261829	47.380154005576	321.288653752576	1118.266965773810	123.139699748951	340.659376258364	1250.727854871767	92.624179115339	312.951416803568	721.100043361646	1102.401828986369	236.749160481232	720.324020630985	842.666243044382	212.264584948127	992.744733501256	1102.405813323794	785.868489065697	1209.713037310991	1176.998118905679	686.671077924525	
21	38.705714285714	682.435063091151	1002.146703106123	528.696316297767	840.270050799427	1434.003520556614	343.887062480362	958.961133551771	1359.847970433527	491.447036795171	893.359952204096	1428.861765244183	675.363935748759	855.437951810978	1489.295564608207	496.321089910688	915.298129680977	934.314676623028	627.681347430523	883.107528907188	956.474333240719	354.684184916099	919.077597910393	723.053623793790	596.705350292410	822.008153712706	626.383372736704	661.718385334734	881.063878738624	562.636564710750	578.390379251204	863.617191444177	475.486754233670	581.817919692836	957.106744702654	766.758058031796	385.402065660180	904.404610069696	640.803337845825	308.103484540652	1004.142453372303	579.048260314551	371.794971976456	1030.630627904945	516.156579154001	369.439683830013	1017.195834394648	445.683730308909	358.603912428435	958.075620058151	313.423163440727	306.849188985626	1047.972033385079	218.473601959479	363.793091433141	824.985420971308	391.114896245605	590.133682959008	743.283784446484	297.351297796328	654.126269246524	767.128741209256	198.666077819216	588.759150817427	614.938773659655	43.086129152363	562.217131141200	785.243020764222	95.174175721402	595.892177520092	697.983847738852	36.068749743689	637.154023658544	906.160260458803	43.424823602195	625.894156444265	967.709682832597	41.683772564451	404.470793528891	1040.048931961148	44.903619900273	322.960858497483	1113.623417023542	118.820195078885	342.367565165605	1245.297731268955	85.464592292215	313.782095682862	719.168659689763	1101.939444837388	235.426481635066	718.748133547211	842.071274657303	211.113905752230	998.205261832667	1103.106260298654	781.931104538378	1210.465396183609	1185.761210805722	679.852730364845	
22	38.719000000000	684.284544093238	1000.655796433916	526.672453440058	840.000920007186	1432.780533760675	341.571973641631	959.225336993098	1359.254036953986	488.987378877323	893.482479751936	1427.997439967925	672.941608914106	855.061905772137	1488.188013693673	493.985903389416	917.197479884365	933.380993327801	625.934314725603	885.250119709302	954.997866482951	352.949749827826	919.206083092801	721.567171156035	595.660760073142	820.724318346897	625.789139422393	660.701718242087	879.084009191953	561.265124865389	577.579014005322	860.616666279911	474.139824806966	580.858599919504	959.680849418434	765.266162910634	383.953463642782	905.599476938972	638.572230260346	308.005956280132	1005.861526708554	577.398917977093	371.151537317084	1031.606249454017	513.549729764373	369.288848930268	1017.361484916878	442.547375928414	358.896131685200	955.886198619080	311.027705096457	307.981235694057	1044.273394404671	214.895718503848	365.085032986972	821.250893100233	390.262216186746	589.355656637242	738.814399233372	297.326959075614	653.661967696054	761.562319127041	198.306841411156	588.420840485904	608.281171034009	43.204921026706	562.300771774155	778.624164958952	95.096249958506	595.842746909218	691.335990304424	36.042037785152	637.152356884751	899.543013455554	43.079178368017	625.948094041043	960.680098744265	40.489116380983	406.214658217735	1032.834574335643	42.485086518253	324.427506861696	1108.203425945168	114.324596676305	344.227014021202	1239.092680902706	77.865996024736	315.013990008322	717.829027689502	1101.164120814431	233.855074446172	718.125346531604	841.151895444040	209.745633523641	1003.355902870915	1103.820979127224	778.156971755313	1211.097984553852	1193.317523719979	673.288675021486	
